<svg width="306" height="306" viewBox="0 0 306 306" fill="none" xmlns="http://www.w3.org/2000/svg">
<g clip-path="url(#clip0_71_21)">
<circle cx="153" cy="153" r="153" fill="#FFB526"/>
<path d="M153.056 258L100.662 124.5C61.0564 22.0005 243.556 23.0005 205.451 124.5L153.056 258Z" fill="#031388"/>
<path d="M227.921 137L248.749 190.4C264.493 231.4 191.946 231 207.094 190.4L227.921 137Z" fill="#031388"/>
<path d="M61.9215 95L82.7493 148.4C98.4932 189.4 25.9461 189 41.0937 148.4L61.9215 95Z" fill="#031388"/>
<path d="M102.956 197L114.728 227.514C123.627 250.943 82.6217 250.714 91.1834 227.514L102.956 197Z" fill="#031388"/>
<circle cx="152.718" cy="104" r="20" transform="rotate(180 152.718 104)" fill="#FFB526"/>
</g>
<defs>
<clipPath id="clip0_71_21">
<rect width="306" height="306" fill="white"/>
</clipPath>
</defs>
</svg>
